<mxfile host="app.diagrams.net" agent="Mozilla/5.0 (Windows NT 10.0; Win64; x64) AppleWebKit/537.36 (KHTML, like Gecko) Chrome/134.0.0.0 Safari/537.36" version="26.2.5">
  <diagram name="Page-1" id="xYt2q9tZ1VIfIKf-1syo">
    <mxGraphModel dx="1724" dy="1531" grid="1" gridSize="10" guides="1" tooltips="1" connect="1" arrows="1" fold="1" page="1" pageScale="1" pageWidth="850" pageHeight="1100" math="0" shadow="0">
      <root>
        <mxCell id="0" />
        <mxCell id="1" parent="0" />
        <mxCell id="v--YhOw3GGQYvizf7njg-1" value="User" style="swimlane;fontStyle=1;align=center;verticalAlign=top;childLayout=stackLayout;horizontal=1;startSize=26;horizontalStack=0;resizeParent=1;resizeParentMax=0;resizeLast=0;collapsible=1;marginBottom=0;whiteSpace=wrap;html=1;fillColor=#d5e8d4;strokeColor=#82b366;" parent="1" vertex="1">
          <mxGeometry x="90" y="-280" width="140" height="180" as="geometry" />
        </mxCell>
        <mxCell id="v--YhOw3GGQYvizf7njg-2" value="&lt;div&gt;- id: int&lt;/div&gt;&lt;div&gt;- name: String&lt;/div&gt;&lt;div&gt;- email: String&lt;/div&gt;&lt;div&gt;- password: String&lt;/div&gt;&lt;div&gt;&lt;br&gt;&lt;/div&gt;" style="text;strokeColor=none;fillColor=none;align=left;verticalAlign=top;spacingLeft=4;spacingRight=4;overflow=hidden;rotatable=0;points=[[0,0.5],[1,0.5]];portConstraint=eastwest;whiteSpace=wrap;html=1;" parent="v--YhOw3GGQYvizf7njg-1" vertex="1">
          <mxGeometry y="26" width="140" height="74" as="geometry" />
        </mxCell>
        <mxCell id="v--YhOw3GGQYvizf7njg-3" value="" style="line;strokeWidth=1;fillColor=none;align=left;verticalAlign=middle;spacingTop=-1;spacingLeft=3;spacingRight=3;rotatable=0;labelPosition=right;points=[];portConstraint=eastwest;strokeColor=inherit;" parent="v--YhOw3GGQYvizf7njg-1" vertex="1">
          <mxGeometry y="100" width="140" height="8" as="geometry" />
        </mxCell>
        <mxCell id="v--YhOw3GGQYvizf7njg-4" value="&lt;div&gt;+ login()&lt;/div&gt;&lt;div&gt;+ logout()&lt;/div&gt;&lt;div&gt;+ updateProfile()&lt;/div&gt;" style="text;strokeColor=none;fillColor=none;align=left;verticalAlign=top;spacingLeft=4;spacingRight=4;overflow=hidden;rotatable=0;points=[[0,0.5],[1,0.5]];portConstraint=eastwest;whiteSpace=wrap;html=1;" parent="v--YhOw3GGQYvizf7njg-1" vertex="1">
          <mxGeometry y="108" width="140" height="72" as="geometry" />
        </mxCell>
        <mxCell id="v--YhOw3GGQYvizf7njg-27" value="ServiceProvider" style="swimlane;fontStyle=1;align=center;verticalAlign=top;childLayout=stackLayout;horizontal=1;startSize=26;horizontalStack=0;resizeParent=1;resizeParentMax=0;resizeLast=0;collapsible=1;marginBottom=0;whiteSpace=wrap;html=1;fillColor=#d5e8d4;strokeColor=#82b366;" parent="1" vertex="1">
          <mxGeometry x="-130" y="50" width="240" height="170" as="geometry" />
        </mxCell>
        <mxCell id="v--YhOw3GGQYvizf7njg-28" value="&lt;div&gt;- servicesOffered: List&amp;lt;Service&amp;gt;&lt;/div&gt;&lt;div&gt;- availability: String&lt;/div&gt;&lt;div&gt;- rating: float&lt;/div&gt;" style="text;strokeColor=none;fillColor=none;align=left;verticalAlign=top;spacingLeft=4;spacingRight=4;overflow=hidden;rotatable=0;points=[[0,0.5],[1,0.5]];portConstraint=eastwest;whiteSpace=wrap;html=1;" parent="v--YhOw3GGQYvizf7njg-27" vertex="1">
          <mxGeometry y="26" width="240" height="54" as="geometry" />
        </mxCell>
        <mxCell id="v--YhOw3GGQYvizf7njg-29" value="" style="line;strokeWidth=1;fillColor=none;align=left;verticalAlign=middle;spacingTop=-1;spacingLeft=3;spacingRight=3;rotatable=0;labelPosition=right;points=[];portConstraint=eastwest;strokeColor=inherit;" parent="v--YhOw3GGQYvizf7njg-27" vertex="1">
          <mxGeometry y="80" width="240" height="8" as="geometry" />
        </mxCell>
        <mxCell id="v--YhOw3GGQYvizf7njg-30" value="&lt;div&gt;+ addService(service: Service): void&lt;/div&gt;&lt;div&gt;+ editService(service: Service): void&lt;/div&gt;&lt;div&gt;+ deleteService(service: Service): void&lt;/div&gt;&lt;div&gt;+ listServicesByCategory(category: String): List&amp;lt;Service&amp;gt;&lt;/div&gt;" style="text;strokeColor=none;fillColor=none;align=left;verticalAlign=top;spacingLeft=4;spacingRight=4;overflow=hidden;rotatable=0;points=[[0,0.5],[1,0.5]];portConstraint=eastwest;whiteSpace=wrap;html=1;" parent="v--YhOw3GGQYvizf7njg-27" vertex="1">
          <mxGeometry y="88" width="240" height="82" as="geometry" />
        </mxCell>
        <mxCell id="v--YhOw3GGQYvizf7njg-31" value="ServiceSeeker" style="swimlane;fontStyle=1;align=center;verticalAlign=top;childLayout=stackLayout;horizontal=1;startSize=26;horizontalStack=0;resizeParent=1;resizeParentMax=0;resizeLast=0;collapsible=1;marginBottom=0;whiteSpace=wrap;html=1;fillColor=#d5e8d4;strokeColor=#82b366;" parent="1" vertex="1">
          <mxGeometry x="260" y="50" width="250" height="290" as="geometry" />
        </mxCell>
        <mxCell id="v--YhOw3GGQYvizf7njg-32" value="&lt;div&gt;- savedServices: List&amp;lt;Service&amp;gt;&lt;/div&gt;&lt;div&gt;- reviewsGiven: List&amp;lt;Review&amp;gt;&lt;/div&gt;&lt;div&gt;- searchHistory: List &amp;lt;String&lt;/div&gt;" style="text;strokeColor=none;fillColor=none;align=left;verticalAlign=top;spacingLeft=4;spacingRight=4;overflow=hidden;rotatable=0;points=[[0,0.5],[1,0.5]];portConstraint=eastwest;whiteSpace=wrap;html=1;" parent="v--YhOw3GGQYvizf7njg-31" vertex="1">
          <mxGeometry y="26" width="250" height="94" as="geometry" />
        </mxCell>
        <mxCell id="v--YhOw3GGQYvizf7njg-33" value="" style="line;strokeWidth=1;fillColor=none;align=left;verticalAlign=middle;spacingTop=-1;spacingLeft=3;spacingRight=3;rotatable=0;labelPosition=right;points=[];portConstraint=eastwest;strokeColor=inherit;" parent="v--YhOw3GGQYvizf7njg-31" vertex="1">
          <mxGeometry y="120" width="250" height="8" as="geometry" />
        </mxCell>
        <mxCell id="v--YhOw3GGQYvizf7njg-34" value="&lt;div&gt;+ saveService(service: Service): void&amp;nbsp;&amp;nbsp;&lt;/div&gt;&lt;div&gt;+ writeReview(service: Service, rating: float, comment: String): void&amp;nbsp;&amp;nbsp;&lt;/div&gt;&lt;div&gt;+ searchByKeyword(keyword: String): List&amp;lt;Service&amp;gt;&amp;nbsp;&amp;nbsp;&lt;/div&gt;&lt;div&gt;+ filterByCategory(category: String): List&amp;lt;Service&amp;gt;&amp;nbsp;&amp;nbsp;&lt;/div&gt;&lt;div&gt;+ sortResults(criterion: String): List&amp;lt;Service&amp;gt;&lt;/div&gt;&lt;div&gt;&lt;br&gt;&lt;/div&gt;" style="text;strokeColor=none;fillColor=none;align=left;verticalAlign=top;spacingLeft=4;spacingRight=4;overflow=hidden;rotatable=0;points=[[0,0.5],[1,0.5]];portConstraint=eastwest;whiteSpace=wrap;html=1;" parent="v--YhOw3GGQYvizf7njg-31" vertex="1">
          <mxGeometry y="128" width="250" height="162" as="geometry" />
        </mxCell>
        <mxCell id="v--YhOw3GGQYvizf7njg-43" value="Payment" style="swimlane;fontStyle=1;align=center;verticalAlign=top;childLayout=stackLayout;horizontal=1;startSize=26;horizontalStack=0;resizeParent=1;resizeParentMax=0;resizeLast=0;collapsible=1;marginBottom=0;whiteSpace=wrap;html=1;fillColor=#dae8fc;strokeColor=#6c8ebf;" parent="1" vertex="1">
          <mxGeometry x="50" y="260" width="160" height="160" as="geometry" />
        </mxCell>
        <mxCell id="v--YhOw3GGQYvizf7njg-44" value="&lt;div&gt;&lt;div&gt;- id: int&lt;/div&gt;&lt;div&gt;- amount: float&lt;/div&gt;&lt;div&gt;- service: Service&lt;/div&gt;&lt;div&gt;- seeker: ServiceSeeker&lt;/div&gt;&lt;div&gt;- provider: ServiceProvider&lt;/div&gt;&lt;/div&gt;" style="text;strokeColor=none;fillColor=none;align=left;verticalAlign=top;spacingLeft=4;spacingRight=4;overflow=hidden;rotatable=0;points=[[0,0.5],[1,0.5]];portConstraint=eastwest;whiteSpace=wrap;html=1;" parent="v--YhOw3GGQYvizf7njg-43" vertex="1">
          <mxGeometry y="26" width="160" height="84" as="geometry" />
        </mxCell>
        <mxCell id="v--YhOw3GGQYvizf7njg-45" value="" style="line;strokeWidth=1;fillColor=none;align=left;verticalAlign=middle;spacingTop=-1;spacingLeft=3;spacingRight=3;rotatable=0;labelPosition=right;points=[];portConstraint=eastwest;strokeColor=inherit;" parent="v--YhOw3GGQYvizf7njg-43" vertex="1">
          <mxGeometry y="110" width="160" height="8" as="geometry" />
        </mxCell>
        <mxCell id="v--YhOw3GGQYvizf7njg-46" value="&lt;div&gt;+ processPayment()&lt;span style=&quot;background-color: transparent; color: light-dark(rgb(0, 0, 0), rgb(255, 255, 255));&quot;&gt;: void&lt;/span&gt;&lt;/div&gt;&lt;div&gt;+ refundPayment()&lt;span style=&quot;background-color: transparent; color: light-dark(rgb(0, 0, 0), rgb(255, 255, 255));&quot;&gt;: void&lt;/span&gt;&lt;/div&gt;" style="text;strokeColor=none;fillColor=none;align=left;verticalAlign=top;spacingLeft=4;spacingRight=4;overflow=hidden;rotatable=0;points=[[0,0.5],[1,0.5]];portConstraint=eastwest;whiteSpace=wrap;html=1;" parent="v--YhOw3GGQYvizf7njg-43" vertex="1">
          <mxGeometry y="118" width="160" height="42" as="geometry" />
        </mxCell>
        <mxCell id="NRQsXMBT88ofwDtmfdpQ-1" value="AdminPanel" style="swimlane;fontStyle=1;align=center;verticalAlign=top;childLayout=stackLayout;horizontal=1;startSize=26;horizontalStack=0;resizeParent=1;resizeParentMax=0;resizeLast=0;collapsible=1;marginBottom=0;whiteSpace=wrap;html=1;fillColor=#dae8fc;strokeColor=#6c8ebf;" parent="1" vertex="1">
          <mxGeometry x="710" y="-120" width="190" height="130" as="geometry" />
        </mxCell>
        <mxCell id="NRQsXMBT88ofwDtmfdpQ-2" value="&lt;div&gt;- flaggedReviews: List&amp;lt;Review&amp;gt;&lt;/div&gt;&lt;div&gt;- reportedUsers: List&amp;lt;User&amp;gt;&amp;nbsp;&lt;/div&gt;" style="text;strokeColor=none;fillColor=none;align=left;verticalAlign=top;spacingLeft=4;spacingRight=4;overflow=hidden;rotatable=0;points=[[0,0.5],[1,0.5]];portConstraint=eastwest;whiteSpace=wrap;html=1;" parent="NRQsXMBT88ofwDtmfdpQ-1" vertex="1">
          <mxGeometry y="26" width="190" height="44" as="geometry" />
        </mxCell>
        <mxCell id="NRQsXMBT88ofwDtmfdpQ-3" value="" style="line;strokeWidth=1;fillColor=none;align=left;verticalAlign=middle;spacingTop=-1;spacingLeft=3;spacingRight=3;rotatable=0;labelPosition=right;points=[];portConstraint=eastwest;strokeColor=inherit;" parent="NRQsXMBT88ofwDtmfdpQ-1" vertex="1">
          <mxGeometry y="70" width="190" height="8" as="geometry" />
        </mxCell>
        <mxCell id="NRQsXMBT88ofwDtmfdpQ-4" value="&lt;div&gt;+ approveService(): void&lt;/div&gt;&lt;div&gt;+ banUser(): void&lt;/div&gt;" style="text;strokeColor=none;fillColor=none;align=left;verticalAlign=top;spacingLeft=4;spacingRight=4;overflow=hidden;rotatable=0;points=[[0,0.5],[1,0.5]];portConstraint=eastwest;whiteSpace=wrap;html=1;" parent="NRQsXMBT88ofwDtmfdpQ-1" vertex="1">
          <mxGeometry y="78" width="190" height="52" as="geometry" />
        </mxCell>
        <mxCell id="NRQsXMBT88ofwDtmfdpQ-7" value="ServiceRequest" style="swimlane;fontStyle=1;align=center;verticalAlign=top;childLayout=stackLayout;horizontal=1;startSize=26;horizontalStack=0;resizeParent=1;resizeParentMax=0;resizeLast=0;collapsible=1;marginBottom=0;whiteSpace=wrap;html=1;fillColor=#dae8fc;strokeColor=#6c8ebf;" parent="1" vertex="1">
          <mxGeometry x="740" y="270" width="160" height="160" as="geometry" />
        </mxCell>
        <mxCell id="NRQsXMBT88ofwDtmfdpQ-8" value="&lt;div&gt;- id: int&lt;/div&gt;&lt;div&gt;- seeker: ServiceSeeker&lt;/div&gt;&lt;div&gt;- provider: ServiceProvider&lt;/div&gt;&lt;div&gt;- service: Service&lt;/div&gt;&lt;div&gt;- status: String&lt;/div&gt;" style="text;strokeColor=none;fillColor=none;align=left;verticalAlign=top;spacingLeft=4;spacingRight=4;overflow=hidden;rotatable=0;points=[[0,0.5],[1,0.5]];portConstraint=eastwest;whiteSpace=wrap;html=1;" parent="NRQsXMBT88ofwDtmfdpQ-7" vertex="1">
          <mxGeometry y="26" width="160" height="84" as="geometry" />
        </mxCell>
        <mxCell id="NRQsXMBT88ofwDtmfdpQ-9" value="" style="line;strokeWidth=1;fillColor=none;align=left;verticalAlign=middle;spacingTop=-1;spacingLeft=3;spacingRight=3;rotatable=0;labelPosition=right;points=[];portConstraint=eastwest;strokeColor=inherit;" parent="NRQsXMBT88ofwDtmfdpQ-7" vertex="1">
          <mxGeometry y="110" width="160" height="8" as="geometry" />
        </mxCell>
        <mxCell id="NRQsXMBT88ofwDtmfdpQ-10" value="&lt;div&gt;+ requestService()&lt;span style=&quot;background-color: transparent; color: light-dark(rgb(0, 0, 0), rgb(255, 255, 255));&quot;&gt;: void&lt;/span&gt;&lt;/div&gt;&lt;div&gt;+ updateStatus()&lt;span style=&quot;background-color: transparent; color: light-dark(rgb(0, 0, 0), rgb(255, 255, 255));&quot;&gt;: void&lt;/span&gt;&lt;/div&gt;" style="text;strokeColor=none;fillColor=none;align=left;verticalAlign=top;spacingLeft=4;spacingRight=4;overflow=hidden;rotatable=0;points=[[0,0.5],[1,0.5]];portConstraint=eastwest;whiteSpace=wrap;html=1;" parent="NRQsXMBT88ofwDtmfdpQ-7" vertex="1">
          <mxGeometry y="118" width="160" height="42" as="geometry" />
        </mxCell>
        <mxCell id="NRQsXMBT88ofwDtmfdpQ-12" value="Favorite" style="swimlane;fontStyle=1;align=center;verticalAlign=top;childLayout=stackLayout;horizontal=1;startSize=26;horizontalStack=0;resizeParent=1;resizeParentMax=0;resizeLast=0;collapsible=1;marginBottom=0;whiteSpace=wrap;html=1;fillColor=#dae8fc;strokeColor=#6c8ebf;" parent="1" vertex="1">
          <mxGeometry x="560" y="384.52" width="160" height="140" as="geometry" />
        </mxCell>
        <mxCell id="NRQsXMBT88ofwDtmfdpQ-13" value="&lt;div&gt;- id: int&lt;/div&gt;&lt;div&gt;- seeker: ServiceSeeker&lt;/div&gt;&lt;div&gt;- service: Service&lt;/div&gt;" style="text;strokeColor=none;fillColor=none;align=left;verticalAlign=top;spacingLeft=4;spacingRight=4;overflow=hidden;rotatable=0;points=[[0,0.5],[1,0.5]];portConstraint=eastwest;whiteSpace=wrap;html=1;" parent="NRQsXMBT88ofwDtmfdpQ-12" vertex="1">
          <mxGeometry y="26" width="160" height="64" as="geometry" />
        </mxCell>
        <mxCell id="NRQsXMBT88ofwDtmfdpQ-14" value="" style="line;strokeWidth=1;fillColor=none;align=left;verticalAlign=middle;spacingTop=-1;spacingLeft=3;spacingRight=3;rotatable=0;labelPosition=right;points=[];portConstraint=eastwest;strokeColor=inherit;" parent="NRQsXMBT88ofwDtmfdpQ-12" vertex="1">
          <mxGeometry y="90" width="160" height="8" as="geometry" />
        </mxCell>
        <mxCell id="NRQsXMBT88ofwDtmfdpQ-15" value="&lt;div&gt;+ addFavorite()&lt;span style=&quot;background-color: transparent; color: light-dark(rgb(0, 0, 0), rgb(255, 255, 255));&quot;&gt;: void&lt;/span&gt;&lt;/div&gt;&lt;div&gt;+ removeFavorite(): void&lt;/div&gt;" style="text;strokeColor=none;fillColor=none;align=left;verticalAlign=top;spacingLeft=4;spacingRight=4;overflow=hidden;rotatable=0;points=[[0,0.5],[1,0.5]];portConstraint=eastwest;whiteSpace=wrap;html=1;" parent="NRQsXMBT88ofwDtmfdpQ-12" vertex="1">
          <mxGeometry y="98" width="160" height="42" as="geometry" />
        </mxCell>
        <mxCell id="NRQsXMBT88ofwDtmfdpQ-17" value="Review" style="swimlane;fontStyle=1;align=center;verticalAlign=top;childLayout=stackLayout;horizontal=1;startSize=26;horizontalStack=0;resizeParent=1;resizeParentMax=0;resizeLast=0;collapsible=1;marginBottom=0;whiteSpace=wrap;html=1;fillColor=#dae8fc;strokeColor=#6c8ebf;" parent="1" vertex="1">
          <mxGeometry x="265" y="460" width="220" height="210" as="geometry" />
        </mxCell>
        <mxCell id="NRQsXMBT88ofwDtmfdpQ-18" value="&lt;div&gt;- id: int&lt;/div&gt;&lt;div&gt;- rating: float&lt;/div&gt;&lt;div&gt;- comment: String&lt;/div&gt;&lt;div&gt;- service: Service&lt;/div&gt;&lt;div&gt;- seeker: ServiceSeeker&lt;/div&gt;" style="text;strokeColor=none;fillColor=none;align=left;verticalAlign=top;spacingLeft=4;spacingRight=4;overflow=hidden;rotatable=0;points=[[0,0.5],[1,0.5]];portConstraint=eastwest;whiteSpace=wrap;html=1;" parent="NRQsXMBT88ofwDtmfdpQ-17" vertex="1">
          <mxGeometry y="26" width="220" height="84" as="geometry" />
        </mxCell>
        <mxCell id="NRQsXMBT88ofwDtmfdpQ-19" value="" style="line;strokeWidth=1;fillColor=none;align=left;verticalAlign=middle;spacingTop=-1;spacingLeft=3;spacingRight=3;rotatable=0;labelPosition=right;points=[];portConstraint=eastwest;strokeColor=inherit;" parent="NRQsXMBT88ofwDtmfdpQ-17" vertex="1">
          <mxGeometry y="110" width="220" height="8" as="geometry" />
        </mxCell>
        <mxCell id="NRQsXMBT88ofwDtmfdpQ-20" value="&lt;div&gt;+ addReview(): void&lt;/div&gt;&lt;div&gt;+ editReview(newComment: String, newRating: float): void&lt;/div&gt;&lt;div&gt;+ deleteReview(): void&lt;/div&gt;" style="text;strokeColor=none;fillColor=none;align=left;verticalAlign=top;spacingLeft=4;spacingRight=4;overflow=hidden;rotatable=0;points=[[0,0.5],[1,0.5]];portConstraint=eastwest;whiteSpace=wrap;html=1;" parent="NRQsXMBT88ofwDtmfdpQ-17" vertex="1">
          <mxGeometry y="118" width="220" height="92" as="geometry" />
        </mxCell>
        <mxCell id="NRQsXMBT88ofwDtmfdpQ-22" value="Rating" style="swimlane;fontStyle=1;align=center;verticalAlign=top;childLayout=stackLayout;horizontal=1;startSize=26;horizontalStack=0;resizeParent=1;resizeParentMax=0;resizeLast=0;collapsible=1;marginBottom=0;whiteSpace=wrap;html=1;fillColor=#dae8fc;strokeColor=#6c8ebf;" parent="1" vertex="1">
          <mxGeometry x="300" y="712" width="160" height="114" as="geometry" />
        </mxCell>
        <mxCell id="NRQsXMBT88ofwDtmfdpQ-23" value="&lt;div&gt;- id: int&lt;/div&gt;&lt;div&gt;- value: float&lt;/div&gt;&lt;div&gt;- review: Review&lt;/div&gt;" style="text;strokeColor=none;fillColor=none;align=left;verticalAlign=top;spacingLeft=4;spacingRight=4;overflow=hidden;rotatable=0;points=[[0,0.5],[1,0.5]];portConstraint=eastwest;whiteSpace=wrap;html=1;" parent="NRQsXMBT88ofwDtmfdpQ-22" vertex="1">
          <mxGeometry y="26" width="160" height="54" as="geometry" />
        </mxCell>
        <mxCell id="NRQsXMBT88ofwDtmfdpQ-24" value="" style="line;strokeWidth=1;fillColor=none;align=left;verticalAlign=middle;spacingTop=-1;spacingLeft=3;spacingRight=3;rotatable=0;labelPosition=right;points=[];portConstraint=eastwest;strokeColor=inherit;" parent="NRQsXMBT88ofwDtmfdpQ-22" vertex="1">
          <mxGeometry y="80" width="160" height="8" as="geometry" />
        </mxCell>
        <mxCell id="NRQsXMBT88ofwDtmfdpQ-25" value="+ calculateAverage(): float" style="text;strokeColor=none;fillColor=none;align=left;verticalAlign=top;spacingLeft=4;spacingRight=4;overflow=hidden;rotatable=0;points=[[0,0.5],[1,0.5]];portConstraint=eastwest;whiteSpace=wrap;html=1;" parent="NRQsXMBT88ofwDtmfdpQ-22" vertex="1">
          <mxGeometry y="88" width="160" height="26" as="geometry" />
        </mxCell>
        <mxCell id="NRQsXMBT88ofwDtmfdpQ-26" style="edgeStyle=orthogonalEdgeStyle;rounded=0;orthogonalLoop=1;jettySize=auto;html=1;entryX=0.5;entryY=0;entryDx=0;entryDy=0;" parent="1" source="NRQsXMBT88ofwDtmfdpQ-20" target="NRQsXMBT88ofwDtmfdpQ-22" edge="1">
          <mxGeometry relative="1" as="geometry">
            <mxPoint x="380" y="709" as="sourcePoint" />
            <Array as="points">
              <mxPoint x="380" y="680" />
              <mxPoint x="380" y="680" />
            </Array>
          </mxGeometry>
        </mxCell>
        <mxCell id="NRQsXMBT88ofwDtmfdpQ-27" style="edgeStyle=orthogonalEdgeStyle;rounded=0;orthogonalLoop=1;jettySize=auto;html=1;entryX=0.75;entryY=0;entryDx=0;entryDy=0;" parent="1" source="v--YhOw3GGQYvizf7njg-34" target="v--YhOw3GGQYvizf7njg-43" edge="1">
          <mxGeometry relative="1" as="geometry" />
        </mxCell>
        <mxCell id="NRQsXMBT88ofwDtmfdpQ-29" value="Service" style="swimlane;fontStyle=1;align=center;verticalAlign=top;childLayout=stackLayout;horizontal=1;startSize=26;horizontalStack=0;resizeParent=1;resizeParentMax=0;resizeLast=0;collapsible=1;marginBottom=0;whiteSpace=wrap;html=1;fillColor=#dae8fc;strokeColor=#6c8ebf;" parent="1" vertex="1">
          <mxGeometry x="-330" y="230" width="280" height="210" as="geometry" />
        </mxCell>
        <mxCell id="NRQsXMBT88ofwDtmfdpQ-30" value="&lt;div&gt;- id: int&lt;/div&gt;&lt;div&gt;- name: String&lt;/div&gt;&lt;div&gt;- category: String&lt;/div&gt;&lt;div&gt;- description: String&lt;/div&gt;&lt;div&gt;- price: float&lt;/div&gt;&lt;div&gt;- provider: ServiceProvider&lt;/div&gt;" style="text;strokeColor=none;fillColor=none;align=left;verticalAlign=top;spacingLeft=4;spacingRight=4;overflow=hidden;rotatable=0;points=[[0,0.5],[1,0.5]];portConstraint=eastwest;whiteSpace=wrap;html=1;" parent="NRQsXMBT88ofwDtmfdpQ-29" vertex="1">
          <mxGeometry y="26" width="280" height="94" as="geometry" />
        </mxCell>
        <mxCell id="NRQsXMBT88ofwDtmfdpQ-31" value="" style="line;strokeWidth=1;fillColor=none;align=left;verticalAlign=middle;spacingTop=-1;spacingLeft=3;spacingRight=3;rotatable=0;labelPosition=right;points=[];portConstraint=eastwest;strokeColor=inherit;" parent="NRQsXMBT88ofwDtmfdpQ-29" vertex="1">
          <mxGeometry y="120" width="280" height="8" as="geometry" />
        </mxCell>
        <mxCell id="NRQsXMBT88ofwDtmfdpQ-32" value="&lt;div&gt;+ editService(newDescription: String, newPrice: float): void&lt;/div&gt;&lt;div&gt;+ deleteService(): void&lt;/div&gt;&lt;div&gt;&lt;div&gt;- providers: List&amp;lt;ServiceProvider&amp;gt;&lt;/div&gt;&lt;/div&gt;&lt;div&gt;&lt;span style=&quot;background-color: transparent; color: light-dark(rgb(0, 0, 0), rgb(255, 255, 255));&quot;&gt;+ getDetails(): String&lt;/span&gt;&lt;/div&gt;" style="text;strokeColor=none;fillColor=none;align=left;verticalAlign=top;spacingLeft=4;spacingRight=4;overflow=hidden;rotatable=0;points=[[0,0.5],[1,0.5]];portConstraint=eastwest;whiteSpace=wrap;html=1;" parent="NRQsXMBT88ofwDtmfdpQ-29" vertex="1">
          <mxGeometry y="128" width="280" height="82" as="geometry" />
        </mxCell>
        <mxCell id="NRQsXMBT88ofwDtmfdpQ-34" style="edgeStyle=orthogonalEdgeStyle;rounded=0;orthogonalLoop=1;jettySize=auto;html=1;entryX=0.5;entryY=0;entryDx=0;entryDy=0;" parent="1" source="v--YhOw3GGQYvizf7njg-30" target="NRQsXMBT88ofwDtmfdpQ-29" edge="1">
          <mxGeometry relative="1" as="geometry" />
        </mxCell>
        <mxCell id="NRQsXMBT88ofwDtmfdpQ-36" value="Category" style="swimlane;fontStyle=1;align=center;verticalAlign=top;childLayout=stackLayout;horizontal=1;startSize=26;horizontalStack=0;resizeParent=1;resizeParentMax=0;resizeLast=0;collapsible=1;marginBottom=0;whiteSpace=wrap;html=1;fillColor=#dae8fc;strokeColor=#6c8ebf;" parent="1" vertex="1">
          <mxGeometry x="-330" y="510" width="200" height="120" as="geometry" />
        </mxCell>
        <mxCell id="NRQsXMBT88ofwDtmfdpQ-37" value="&lt;div&gt;- id: int&lt;/div&gt;&lt;div&gt;- name: String&lt;/div&gt;" style="text;strokeColor=none;fillColor=none;align=left;verticalAlign=top;spacingLeft=4;spacingRight=4;overflow=hidden;rotatable=0;points=[[0,0.5],[1,0.5]];portConstraint=eastwest;whiteSpace=wrap;html=1;" parent="NRQsXMBT88ofwDtmfdpQ-36" vertex="1">
          <mxGeometry y="26" width="200" height="44" as="geometry" />
        </mxCell>
        <mxCell id="NRQsXMBT88ofwDtmfdpQ-38" value="" style="line;strokeWidth=1;fillColor=none;align=left;verticalAlign=middle;spacingTop=-1;spacingLeft=3;spacingRight=3;rotatable=0;labelPosition=right;points=[];portConstraint=eastwest;strokeColor=inherit;" parent="NRQsXMBT88ofwDtmfdpQ-36" vertex="1">
          <mxGeometry y="70" width="200" height="8" as="geometry" />
        </mxCell>
        <mxCell id="NRQsXMBT88ofwDtmfdpQ-39" value="&lt;div&gt;+ listServicesByCategory(): List&amp;lt;Service&amp;gt;&lt;/div&gt;&lt;div&gt;&lt;br&gt;&lt;/div&gt;" style="text;strokeColor=none;fillColor=none;align=left;verticalAlign=top;spacingLeft=4;spacingRight=4;overflow=hidden;rotatable=0;points=[[0,0.5],[1,0.5]];portConstraint=eastwest;whiteSpace=wrap;html=1;" parent="NRQsXMBT88ofwDtmfdpQ-36" vertex="1">
          <mxGeometry y="78" width="200" height="42" as="geometry" />
        </mxCell>
        <mxCell id="NRQsXMBT88ofwDtmfdpQ-45" value="SearcFilter" style="swimlane;fontStyle=1;align=center;verticalAlign=top;childLayout=stackLayout;horizontal=1;startSize=26;horizontalStack=0;resizeParent=1;resizeParentMax=0;resizeLast=0;collapsible=1;marginBottom=0;whiteSpace=wrap;html=1;fillColor=#dae8fc;strokeColor=#6c8ebf;" parent="1" vertex="1">
          <mxGeometry x="-240" y="-160" width="280" height="150" as="geometry" />
        </mxCell>
        <mxCell id="NRQsXMBT88ofwDtmfdpQ-46" value="&lt;div&gt;- keywords: String&lt;/div&gt;&lt;div&gt;- location: String&lt;/div&gt;&lt;div&gt;- priceRange: float&lt;/div&gt;&lt;div&gt;- rating: float&lt;/div&gt;" style="text;strokeColor=none;fillColor=none;align=left;verticalAlign=top;spacingLeft=4;spacingRight=4;overflow=hidden;rotatable=0;points=[[0,0.5],[1,0.5]];portConstraint=eastwest;whiteSpace=wrap;html=1;" parent="NRQsXMBT88ofwDtmfdpQ-45" vertex="1">
          <mxGeometry y="26" width="280" height="74" as="geometry" />
        </mxCell>
        <mxCell id="NRQsXMBT88ofwDtmfdpQ-47" value="" style="line;strokeWidth=1;fillColor=none;align=left;verticalAlign=middle;spacingTop=-1;spacingLeft=3;spacingRight=3;rotatable=0;labelPosition=right;points=[];portConstraint=eastwest;strokeColor=inherit;" parent="NRQsXMBT88ofwDtmfdpQ-45" vertex="1">
          <mxGeometry y="100" width="280" height="8" as="geometry" />
        </mxCell>
        <mxCell id="NRQsXMBT88ofwDtmfdpQ-48" value="&lt;div&gt;+ filterByCategory(category: String): List&amp;lt;Service&amp;gt;&lt;/div&gt;&lt;div&gt;+ sortResults(criterion: String): List&amp;lt;Service&amp;gt;&lt;/div&gt;" style="text;strokeColor=none;fillColor=none;align=left;verticalAlign=top;spacingLeft=4;spacingRight=4;overflow=hidden;rotatable=0;points=[[0,0.5],[1,0.5]];portConstraint=eastwest;whiteSpace=wrap;html=1;" parent="NRQsXMBT88ofwDtmfdpQ-45" vertex="1">
          <mxGeometry y="108" width="280" height="42" as="geometry" />
        </mxCell>
        <mxCell id="NRQsXMBT88ofwDtmfdpQ-49" style="edgeStyle=orthogonalEdgeStyle;rounded=0;orthogonalLoop=1;jettySize=auto;html=1;exitX=1;exitY=0.5;exitDx=0;exitDy=0;" parent="1" source="NRQsXMBT88ofwDtmfdpQ-89" target="NRQsXMBT88ofwDtmfdpQ-45" edge="1">
          <mxGeometry relative="1" as="geometry">
            <mxPoint x="-285" y="-221.9411764705883" as="sourcePoint" />
          </mxGeometry>
        </mxCell>
        <mxCell id="NRQsXMBT88ofwDtmfdpQ-54" value="MultilingualSupport" style="swimlane;fontStyle=1;align=center;verticalAlign=top;childLayout=stackLayout;horizontal=1;startSize=26;horizontalStack=0;resizeParent=1;resizeParentMax=0;resizeLast=0;collapsible=1;marginBottom=0;whiteSpace=wrap;html=1;fillColor=#dae8fc;strokeColor=#6c8ebf;" parent="1" vertex="1">
          <mxGeometry x="-630" y="-160" width="250" height="140" as="geometry" />
        </mxCell>
        <mxCell id="NRQsXMBT88ofwDtmfdpQ-55" value="- languagesAvailable: List&amp;lt;String&amp;gt;" style="text;strokeColor=none;fillColor=none;align=left;verticalAlign=top;spacingLeft=4;spacingRight=4;overflow=hidden;rotatable=0;points=[[0,0.5],[1,0.5]];portConstraint=eastwest;whiteSpace=wrap;html=1;" parent="NRQsXMBT88ofwDtmfdpQ-54" vertex="1">
          <mxGeometry y="26" width="250" height="34" as="geometry" />
        </mxCell>
        <mxCell id="NRQsXMBT88ofwDtmfdpQ-56" value="" style="line;strokeWidth=1;fillColor=none;align=left;verticalAlign=middle;spacingTop=-1;spacingLeft=3;spacingRight=3;rotatable=0;labelPosition=right;points=[];portConstraint=eastwest;strokeColor=inherit;" parent="NRQsXMBT88ofwDtmfdpQ-54" vertex="1">
          <mxGeometry y="60" width="250" height="8" as="geometry" />
        </mxCell>
        <mxCell id="NRQsXMBT88ofwDtmfdpQ-57" value="&lt;div&gt;+ translate(key: String, language: String): String&lt;/div&gt;&lt;div&gt;+ setLanguage(language: String): void&lt;/div&gt;" style="text;strokeColor=none;fillColor=none;align=left;verticalAlign=top;spacingLeft=4;spacingRight=4;overflow=hidden;rotatable=0;points=[[0,0.5],[1,0.5]];portConstraint=eastwest;whiteSpace=wrap;html=1;" parent="NRQsXMBT88ofwDtmfdpQ-54" vertex="1">
          <mxGeometry y="68" width="250" height="72" as="geometry" />
        </mxCell>
        <mxCell id="NRQsXMBT88ofwDtmfdpQ-58" style="edgeStyle=orthogonalEdgeStyle;rounded=0;orthogonalLoop=1;jettySize=auto;html=1;entryX=0.5;entryY=0;entryDx=0;entryDy=0;exitX=0;exitY=0.5;exitDx=0;exitDy=0;" parent="1" source="NRQsXMBT88ofwDtmfdpQ-89" target="NRQsXMBT88ofwDtmfdpQ-54" edge="1">
          <mxGeometry relative="1" as="geometry">
            <mxPoint x="-425" y="-221.9411764705883" as="sourcePoint" />
          </mxGeometry>
        </mxCell>
        <mxCell id="NRQsXMBT88ofwDtmfdpQ-66" value="" style="endArrow=classic;html=1;rounded=0;entryX=0.567;entryY=-0.015;entryDx=0;entryDy=0;entryPerimeter=0;" parent="1" source="v--YhOw3GGQYvizf7njg-34" target="NRQsXMBT88ofwDtmfdpQ-17" edge="1">
          <mxGeometry width="50" height="50" relative="1" as="geometry">
            <mxPoint x="200" y="320" as="sourcePoint" />
            <mxPoint x="250" y="270" as="targetPoint" />
          </mxGeometry>
        </mxCell>
        <mxCell id="NRQsXMBT88ofwDtmfdpQ-67" value="" style="endArrow=classic;html=1;rounded=0;entryX=0;entryY=0;entryDx=0;entryDy=0;" parent="1" target="NRQsXMBT88ofwDtmfdpQ-12" edge="1" source="v--YhOw3GGQYvizf7njg-34">
          <mxGeometry width="50" height="50" relative="1" as="geometry">
            <mxPoint x="550" y="380.0014814814815" as="sourcePoint" />
            <mxPoint x="290" y="334.52" as="targetPoint" />
            <Array as="points" />
          </mxGeometry>
        </mxCell>
        <mxCell id="NRQsXMBT88ofwDtmfdpQ-68" value="" style="endArrow=classic;html=1;rounded=0;exitX=1.009;exitY=0.119;exitDx=0;exitDy=0;exitPerimeter=0;entryX=0;entryY=0;entryDx=0;entryDy=0;" parent="1" source="v--YhOw3GGQYvizf7njg-34" target="NRQsXMBT88ofwDtmfdpQ-7" edge="1">
          <mxGeometry width="50" height="50" relative="1" as="geometry">
            <mxPoint x="550" y="320" as="sourcePoint" />
            <mxPoint x="600" y="270" as="targetPoint" />
          </mxGeometry>
        </mxCell>
        <mxCell id="NRQsXMBT88ofwDtmfdpQ-69" value="" style="endArrow=classic;html=1;rounded=0;exitX=1.002;exitY=0.715;exitDx=0;exitDy=0;exitPerimeter=0;entryX=0;entryY=0;entryDx=0;entryDy=0;" parent="1" target="NRQsXMBT88ofwDtmfdpQ-1" edge="1">
          <mxGeometry width="50" height="50" relative="1" as="geometry">
            <mxPoint x="630.5" y="-46.74000000000001" as="sourcePoint" />
            <mxPoint x="910" y="70" as="targetPoint" />
          </mxGeometry>
        </mxCell>
        <mxCell id="NRQsXMBT88ofwDtmfdpQ-70" value="" style="endArrow=classic;html=1;rounded=0;entryX=1;entryY=0.649;entryDx=0;entryDy=0;entryPerimeter=0;" parent="1" source="3FXKUQd7kKBHl0FbM5SX-9" target="v--YhOw3GGQYvizf7njg-2" edge="1">
          <mxGeometry width="50" height="50" relative="1" as="geometry">
            <mxPoint x="380" y="-82" as="sourcePoint" />
            <mxPoint x="560" y="-30" as="targetPoint" />
          </mxGeometry>
        </mxCell>
        <mxCell id="NRQsXMBT88ofwDtmfdpQ-71" value="" style="endArrow=classic;html=1;rounded=0;entryX=0.494;entryY=1.058;entryDx=0;entryDy=0;entryPerimeter=0;" parent="1" target="v--YhOw3GGQYvizf7njg-4" edge="1">
          <mxGeometry width="50" height="50" relative="1" as="geometry">
            <mxPoint x="350" y="48" as="sourcePoint" />
            <mxPoint x="560" y="-30" as="targetPoint" />
          </mxGeometry>
        </mxCell>
        <mxCell id="NRQsXMBT88ofwDtmfdpQ-72" value="" style="endArrow=classic;html=1;rounded=0;exitX=0.5;exitY=0;exitDx=0;exitDy=0;entryX=0.386;entryY=1.047;entryDx=0;entryDy=0;entryPerimeter=0;" parent="1" source="v--YhOw3GGQYvizf7njg-27" target="v--YhOw3GGQYvizf7njg-4" edge="1">
          <mxGeometry width="50" height="50" relative="1" as="geometry">
            <mxPoint x="150" y="20" as="sourcePoint" />
            <mxPoint x="200" y="-30" as="targetPoint" />
          </mxGeometry>
        </mxCell>
        <mxCell id="NRQsXMBT88ofwDtmfdpQ-73" value="" style="endArrow=classic;html=1;rounded=0;entryX=0;entryY=0.5;entryDx=0;entryDy=0;" parent="1" source="NRQsXMBT88ofwDtmfdpQ-32" target="NRQsXMBT88ofwDtmfdpQ-18" edge="1">
          <mxGeometry width="50" height="50" relative="1" as="geometry">
            <mxPoint x="-40" y="445" as="sourcePoint" />
            <mxPoint x="260" y="440" as="targetPoint" />
          </mxGeometry>
        </mxCell>
        <mxCell id="NRQsXMBT88ofwDtmfdpQ-74" value="" style="endArrow=classic;html=1;rounded=0;entryX=0.5;entryY=0;entryDx=0;entryDy=0;" parent="1" source="NRQsXMBT88ofwDtmfdpQ-32" target="NRQsXMBT88ofwDtmfdpQ-36" edge="1">
          <mxGeometry width="50" height="50" relative="1" as="geometry">
            <mxPoint x="210" y="490" as="sourcePoint" />
            <mxPoint x="260" y="440" as="targetPoint" />
          </mxGeometry>
        </mxCell>
        <mxCell id="NRQsXMBT88ofwDtmfdpQ-75" value="" style="endArrow=classic;html=1;rounded=0;entryX=0.25;entryY=0;entryDx=0;entryDy=0;" parent="1" source="v--YhOw3GGQYvizf7njg-30" target="v--YhOw3GGQYvizf7njg-43" edge="1">
          <mxGeometry width="50" height="50" relative="1" as="geometry">
            <mxPoint x="210" y="490" as="sourcePoint" />
            <mxPoint x="260" y="440" as="targetPoint" />
          </mxGeometry>
        </mxCell>
        <mxCell id="NRQsXMBT88ofwDtmfdpQ-88" value="&lt;span style=&quot;&quot;&gt;&lt;b&gt;APP&lt;/b&gt;&lt;/span&gt;" style="swimlane;fontStyle=0;align=center;verticalAlign=top;childLayout=stackLayout;horizontal=1;startSize=26;horizontalStack=0;resizeParent=1;resizeParentMax=0;resizeLast=0;collapsible=1;marginBottom=0;whiteSpace=wrap;html=1;fillColor=#f8cecc;strokeColor=#b85450;" parent="1" vertex="1">
          <mxGeometry x="-430" y="-314" width="160" height="140" as="geometry" />
        </mxCell>
        <mxCell id="NRQsXMBT88ofwDtmfdpQ-89" value="&lt;div&gt;users: List&amp;lt;User&amp;gt;&lt;/div&gt;&lt;div&gt;services: List&amp;lt;Service&amp;gt;&lt;/div&gt;&lt;div&gt;languages: List&amp;lt;String&amp;gt;&lt;/div&gt;" style="text;strokeColor=none;fillColor=none;align=left;verticalAlign=top;spacingLeft=4;spacingRight=4;overflow=hidden;rotatable=0;points=[[0,0.5],[1,0.5]];portConstraint=eastwest;whiteSpace=wrap;html=1;" parent="NRQsXMBT88ofwDtmfdpQ-88" vertex="1">
          <mxGeometry y="26" width="160" height="64" as="geometry" />
        </mxCell>
        <mxCell id="NRQsXMBT88ofwDtmfdpQ-90" value="" style="line;strokeWidth=1;fillColor=none;align=left;verticalAlign=middle;spacingTop=-1;spacingLeft=3;spacingRight=3;rotatable=0;labelPosition=right;points=[];portConstraint=eastwest;strokeColor=inherit;" parent="NRQsXMBT88ofwDtmfdpQ-88" vertex="1">
          <mxGeometry y="90" width="160" height="8" as="geometry" />
        </mxCell>
        <mxCell id="NRQsXMBT88ofwDtmfdpQ-91" value="&lt;div&gt;+ registerUser()&lt;/div&gt;&lt;div&gt;+ authenticateUser()&lt;/div&gt;" style="text;strokeColor=none;fillColor=none;align=left;verticalAlign=top;spacingLeft=4;spacingRight=4;overflow=hidden;rotatable=0;points=[[0,0.5],[1,0.5]];portConstraint=eastwest;whiteSpace=wrap;html=1;" parent="NRQsXMBT88ofwDtmfdpQ-88" vertex="1">
          <mxGeometry y="98" width="160" height="42" as="geometry" />
        </mxCell>
        <mxCell id="NRQsXMBT88ofwDtmfdpQ-100" value="AuthenticationService" style="swimlane;fontStyle=1;align=center;verticalAlign=top;childLayout=stackLayout;horizontal=1;startSize=26;horizontalStack=0;resizeParent=1;resizeParentMax=0;resizeLast=0;collapsible=1;marginBottom=0;whiteSpace=wrap;html=1;fillColor=#d5e8d4;strokeColor=#82b366;" parent="1" vertex="1">
          <mxGeometry x="-155" y="-490" width="450" height="138" as="geometry" />
        </mxCell>
        <mxCell id="NRQsXMBT88ofwDtmfdpQ-101" value="&lt;div&gt;- login(email: String, - password: String): User&lt;/div&gt;&lt;div&gt;- logout(user: User): void&lt;/div&gt;&lt;div&gt;- resetPassword(email: String)&lt;span style=&quot;background-color: transparent; color: light-dark(rgb(0, 0, 0), rgb(255, 255, 255));&quot;&gt;: void&lt;/span&gt;&lt;/div&gt;&lt;div&gt;- verify Credentials(email: String, password: String): boolean&lt;/div&gt;" style="text;strokeColor=none;fillColor=none;align=left;verticalAlign=top;spacingLeft=4;spacingRight=4;overflow=hidden;rotatable=0;points=[[0,0.5],[1,0.5]];portConstraint=eastwest;whiteSpace=wrap;html=1;" parent="NRQsXMBT88ofwDtmfdpQ-100" vertex="1">
          <mxGeometry y="26" width="450" height="104" as="geometry" />
        </mxCell>
        <mxCell id="NRQsXMBT88ofwDtmfdpQ-102" value="" style="line;strokeWidth=1;fillColor=none;align=left;verticalAlign=middle;spacingTop=-1;spacingLeft=3;spacingRight=3;rotatable=0;labelPosition=right;points=[];portConstraint=eastwest;strokeColor=inherit;" parent="NRQsXMBT88ofwDtmfdpQ-100" vertex="1">
          <mxGeometry y="130" width="450" height="8" as="geometry" />
        </mxCell>
        <mxCell id="NRQsXMBT88ofwDtmfdpQ-105" style="edgeStyle=orthogonalEdgeStyle;rounded=0;orthogonalLoop=1;jettySize=auto;html=1;entryX=-0.006;entryY=0.387;entryDx=0;entryDy=0;entryPerimeter=0;" parent="1" source="NRQsXMBT88ofwDtmfdpQ-88" target="NRQsXMBT88ofwDtmfdpQ-101" edge="1">
          <mxGeometry relative="1" as="geometry" />
        </mxCell>
        <mxCell id="NRQsXMBT88ofwDtmfdpQ-106" style="edgeStyle=orthogonalEdgeStyle;rounded=0;orthogonalLoop=1;jettySize=auto;html=1;entryX=0.558;entryY=0.023;entryDx=0;entryDy=0;entryPerimeter=0;" parent="1" source="NRQsXMBT88ofwDtmfdpQ-101" target="v--YhOw3GGQYvizf7njg-1" edge="1">
          <mxGeometry relative="1" as="geometry">
            <Array as="points">
              <mxPoint x="110" y="-320" />
              <mxPoint x="168" y="-320" />
            </Array>
          </mxGeometry>
        </mxCell>
        <mxCell id="3FXKUQd7kKBHl0FbM5SX-2" value="Classname" style="swimlane;fontStyle=1;align=center;verticalAlign=top;childLayout=stackLayout;horizontal=1;startSize=26;horizontalStack=0;resizeParent=1;resizeParentMax=0;resizeLast=0;collapsible=1;marginBottom=0;whiteSpace=wrap;html=1;" vertex="1" parent="1">
          <mxGeometry x="720" y="58" width="160" height="86" as="geometry" />
        </mxCell>
        <mxCell id="3FXKUQd7kKBHl0FbM5SX-3" value="+ field: type" style="text;strokeColor=none;fillColor=none;align=left;verticalAlign=top;spacingLeft=4;spacingRight=4;overflow=hidden;rotatable=0;points=[[0,0.5],[1,0.5]];portConstraint=eastwest;whiteSpace=wrap;html=1;" vertex="1" parent="3FXKUQd7kKBHl0FbM5SX-2">
          <mxGeometry y="26" width="160" height="26" as="geometry" />
        </mxCell>
        <mxCell id="3FXKUQd7kKBHl0FbM5SX-4" value="" style="line;strokeWidth=1;fillColor=none;align=left;verticalAlign=middle;spacingTop=-1;spacingLeft=3;spacingRight=3;rotatable=0;labelPosition=right;points=[];portConstraint=eastwest;strokeColor=inherit;" vertex="1" parent="3FXKUQd7kKBHl0FbM5SX-2">
          <mxGeometry y="52" width="160" height="8" as="geometry" />
        </mxCell>
        <mxCell id="3FXKUQd7kKBHl0FbM5SX-5" value="+ method(type): type" style="text;strokeColor=none;fillColor=none;align=left;verticalAlign=top;spacingLeft=4;spacingRight=4;overflow=hidden;rotatable=0;points=[[0,0.5],[1,0.5]];portConstraint=eastwest;whiteSpace=wrap;html=1;" vertex="1" parent="3FXKUQd7kKBHl0FbM5SX-2">
          <mxGeometry y="60" width="160" height="26" as="geometry" />
        </mxCell>
        <mxCell id="3FXKUQd7kKBHl0FbM5SX-6" value="Admin" style="swimlane;fontStyle=1;align=center;verticalAlign=top;childLayout=stackLayout;horizontal=1;startSize=26;horizontalStack=0;resizeParent=1;resizeParentMax=0;resizeLast=0;collapsible=1;marginBottom=0;whiteSpace=wrap;html=1;fillColor=#dae8fc;strokeColor=#6c8ebf;" vertex="1" parent="1">
          <mxGeometry x="370" y="-320" width="260" height="340" as="geometry" />
        </mxCell>
        <mxCell id="3FXKUQd7kKBHl0FbM5SX-7" value="&lt;div&gt;- id: int&amp;nbsp;&amp;nbsp;&lt;/div&gt;&lt;div&gt;- name: String&amp;nbsp;&amp;nbsp;&lt;/div&gt;&lt;div&gt;- email: String&amp;nbsp;&amp;nbsp;&lt;/div&gt;&lt;div&gt;- password: String&amp;nbsp;&amp;nbsp;&lt;/div&gt;&lt;div&gt;- managedUsers: List&amp;lt;User&amp;gt;&amp;nbsp;&amp;nbsp;&lt;/div&gt;&lt;div&gt;- flaggedContent: List&amp;lt;Review&amp;gt;&lt;/div&gt;&lt;div&gt;&lt;br&gt;&lt;/div&gt;" style="text;strokeColor=none;fillColor=none;align=left;verticalAlign=top;spacingLeft=4;spacingRight=4;overflow=hidden;rotatable=0;points=[[0,0.5],[1,0.5]];portConstraint=eastwest;whiteSpace=wrap;html=1;" vertex="1" parent="3FXKUQd7kKBHl0FbM5SX-6">
          <mxGeometry y="26" width="260" height="114" as="geometry" />
        </mxCell>
        <mxCell id="3FXKUQd7kKBHl0FbM5SX-8" value="" style="line;strokeWidth=1;fillColor=none;align=left;verticalAlign=middle;spacingTop=-1;spacingLeft=3;spacingRight=3;rotatable=0;labelPosition=right;points=[];portConstraint=eastwest;strokeColor=inherit;" vertex="1" parent="3FXKUQd7kKBHl0FbM5SX-6">
          <mxGeometry y="140" width="260" height="8" as="geometry" />
        </mxCell>
        <mxCell id="3FXKUQd7kKBHl0FbM5SX-9" value="&lt;div&gt;&lt;span style=&quot;background-color: transparent; color: light-dark(rgb(0, 0, 0), rgb(255, 255, 255));&quot;&gt;&amp;nbsp;&lt;/span&gt;&lt;span style=&quot;background-color: transparent;&quot;&gt;- managedUsers: List&amp;lt;User&amp;gt;&amp;nbsp;&amp;nbsp;&lt;/span&gt;&lt;/div&gt;&lt;div&gt;- flaggedContent: List&amp;lt;Review&amp;gt;&lt;/div&gt;&lt;div&gt;&lt;br&gt;&lt;/div&gt;&lt;div&gt;+ registerUser(user: User): void&amp;nbsp;&amp;nbsp;&lt;/div&gt;&lt;div&gt;+ removeUser(user: User): void&amp;nbsp;&amp;nbsp;&lt;/div&gt;&lt;div&gt;+ getUserByEmail(email: String): User&amp;nbsp;&amp;nbsp;&lt;/div&gt;&lt;div&gt;+ listAllUsers(): List&amp;lt;User&amp;gt;&amp;nbsp;&amp;nbsp;&lt;/div&gt;&lt;div&gt;&lt;span style=&quot;background-color: transparent; color: light-dark(rgb(0, 0, 0), rgb(255, 255, 255));&quot;&gt;+ reviewFlaggedContent(): void&lt;/span&gt;&lt;/div&gt;" style="text;strokeColor=none;fillColor=none;align=left;verticalAlign=top;spacingLeft=4;spacingRight=4;overflow=hidden;rotatable=0;points=[[0,0.5],[1,0.5]];portConstraint=eastwest;whiteSpace=wrap;html=1;" vertex="1" parent="3FXKUQd7kKBHl0FbM5SX-6">
          <mxGeometry y="148" width="260" height="192" as="geometry" />
        </mxCell>
        <mxCell id="NRQsXMBT88ofwDtmfdpQ-76" style="edgeStyle=orthogonalEdgeStyle;rounded=0;orthogonalLoop=1;jettySize=auto;html=1;" parent="1" source="NRQsXMBT88ofwDtmfdpQ-30" edge="1" target="v--YhOw3GGQYvizf7njg-30">
          <mxGeometry relative="1" as="geometry">
            <mxPoint x="-30" y="240" as="targetPoint" />
            <Array as="points">
              <mxPoint x="-30" y="303" />
            </Array>
          </mxGeometry>
        </mxCell>
        <mxCell id="3FXKUQd7kKBHl0FbM5SX-10" value="N : N" style="ellipse;shape=cloud;whiteSpace=wrap;html=1;" vertex="1" parent="1">
          <mxGeometry x="-235" y="130" width="80" height="40" as="geometry" />
        </mxCell>
        <mxCell id="3FXKUQd7kKBHl0FbM5SX-11" value="N : N" style="ellipse;shape=cloud;whiteSpace=wrap;html=1;" vertex="1" parent="1">
          <mxGeometry x="-50" y="315" width="80" height="40" as="geometry" />
        </mxCell>
      </root>
    </mxGraphModel>
  </diagram>
</mxfile>
